<svg version="1.1" id="Layer_1" xmlns="http://www.w3.org/2000/svg" xmlns:xlink="http://www.w3.org/1999/xlink" x="0px" y="0px"
	 width="100%" viewBox="0 0 159 76" enable-background="new 0 0 159 76" xml:space="preserve">
<path fill="#FDFDFE" opacity="1.000000" stroke="none" 
	d="
M126.000000,77.000000 
	C84.000008,77.000000 42.500019,77.000000 1.000022,77.000000 
	C1.000015,51.666683 1.000015,26.333364 1.000007,1.000036 
	C53.999969,1.000024 106.999939,1.000024 159.999939,1.000012 
	C159.999954,26.333298 159.999954,51.666595 159.999969,76.999947 
	C148.833328,77.000000 137.666672,77.000000 126.000000,77.000000 
M78.210938,63.673649 
	C80.239510,66.241432 82.268082,68.809212 85.026733,72.301140 
	C85.026733,66.558441 85.026733,62.444847 85.026733,58.331249 
	C84.672043,58.327461 84.317352,58.323673 83.962654,58.319885 
	C83.590157,60.544075 83.217667,62.768265 82.751617,65.551033 
	C81.129097,63.794765 80.026672,62.601475 78.539253,60.806030 
	C78.025269,59.627869 77.511284,58.449711 76.997299,57.271549 
	C76.548271,57.740135 76.099243,58.208725 75.650215,58.677311 
	C75.650215,62.716881 75.650215,66.756447 75.650215,70.796013 
	C75.904900,70.779663 76.159576,70.763313 76.414261,70.746964 
	C76.945061,68.173851 77.475868,65.600739 78.210938,63.673649 
M42.341492,63.648888 
	C40.116604,63.473083 37.607948,62.627689 35.784969,63.400253 
	C34.855240,63.794270 34.416763,67.442917 35.137859,68.966568 
	C35.703571,70.161896 39.323059,71.366692 39.952000,70.788864 
	C41.485020,69.380440 42.085747,66.946640 43.014446,64.904167 
	C43.133682,64.641937 42.971416,64.251709 43.775043,63.806454 
	C44.297108,65.225197 44.956963,66.610306 45.313107,68.069550 
	C46.102104,71.302330 47.966148,71.460243 51.301064,70.487923 
	C46.746212,67.870140 46.976261,65.452881 50.142292,62.905277 
	C48.901714,61.795692 47.683849,60.706417 46.333683,59.498817 
	C45.093803,61.160889 44.040928,62.572281 42.341492,63.648888 
M135.590607,30.635283 
	C135.593765,29.802996 135.582291,28.970350 135.602585,28.138483 
	C135.697525,24.249382 137.363174,21.741652 141.551086,21.677006 
	C146.237381,21.604664 146.196320,25.001110 146.218369,28.273008 
	C146.243027,31.934984 145.854965,35.654430 146.403198,39.232944 
	C146.643433,40.801048 148.760269,42.081657 150.024979,43.492809 
	C151.146149,42.136040 153.115433,40.848824 153.233459,39.409782 
	C153.626526,34.616726 153.613297,29.751236 153.279007,24.946684 
	C152.760544,17.495239 146.739426,13.972889 139.733398,16.771130 
	C138.368622,17.316225 137.078629,18.048481 136.951080,18.110682 
	C134.150864,17.269979 132.303345,16.154213 130.704956,16.438601 
	C129.690170,16.619150 128.396866,18.857166 128.345657,20.214645 
	C128.101212,26.697275 128.033661,33.206219 128.408890,39.676472 
	C128.486572,41.015999 130.714935,42.230801 131.952072,43.503086 
	C133.146637,42.189228 135.032043,41.034966 135.380753,39.525688 
	C135.965683,36.993736 135.571960,34.235691 135.590607,30.635283 
M116.453651,43.076988 
	C117.865623,42.613766 119.563347,42.485935 120.610146,41.594097 
	C121.682045,40.680878 122.116417,39.019363 122.829842,37.685390 
	C121.426483,37.413845 120.019943,36.921185 118.620781,36.941319 
	C117.518578,36.957184 116.451012,37.752979 115.324074,37.947624 
	C108.905052,39.056301 105.807205,37.177086 105.401596,31.598669 
	C110.065239,31.598669 114.707428,31.628445 119.348999,31.588167 
	C122.428543,31.561443 123.782845,30.324490 123.306908,26.903612 
	C122.149948,18.587828 114.901093,13.912354 106.859154,16.584356 
	C99.779381,18.936670 96.187805,26.135992 98.186150,33.969376 
	C99.990730,41.043167 107.229378,44.880993 116.453651,43.076988 
M63.829624,22.067642 
	C60.123703,15.767463 49.571079,13.675893 43.820427,18.256868 
	C43.010036,18.902424 42.937592,20.474340 42.523575,21.617474 
	C43.642559,21.997417 44.812935,22.799170 45.869934,22.670378 
	C48.141064,22.393648 50.334404,21.280268 52.594734,21.157763 
	C56.360302,20.953676 58.371590,22.782715 57.852512,26.898798 
	C54.085709,27.301880 50.603180,27.468458 47.206314,28.097576 
	C43.984482,28.694281 41.198761,30.087296 40.807293,34.000496 
	C40.407894,37.992935 41.984276,41.268993 45.630486,42.318233 
	C48.564098,43.162418 52.072556,42.896545 55.102203,42.178776 
	C56.854511,41.763626 57.545864,40.919891 59.468971,42.503632 
	C61.822239,44.441620 64.456436,43.227234 64.484665,39.764496 
	C64.530594,34.128998 64.194450,28.490385 63.829624,22.067642 
M35.688457,37.186436 
	C30.262712,37.186436 24.836967,37.186436 19.009741,37.186436 
	C19.009741,27.360207 19.163990,18.250231 18.851105,9.156325 
	C18.801548,7.715963 16.645657,6.348071 15.463614,4.946672 
	C14.342912,6.258278 12.287514,7.544193 12.250646,8.885589 
	C11.976756,18.850447 11.929081,28.832771 12.297233,38.791615 
	C12.351038,40.247078 14.895745,42.688957 16.443169,42.818424 
	C22.220034,43.301754 28.065252,43.139652 33.877495,42.969372 
	C37.864353,42.852570 38.932072,40.957962 35.688457,37.186436 
M95.006859,20.783092 
	C94.337402,19.218637 93.667946,17.654181 92.998482,16.089725 
	C91.619652,17.032393 89.616455,17.667692 88.973946,18.972839 
	C86.638367,23.717199 84.758263,28.685783 82.364563,34.383484 
	C80.032585,28.691317 78.325729,23.819515 76.001396,19.262676 
	C75.262093,17.813286 72.880112,17.201782 71.249809,16.206873 
	C70.788986,18.001932 69.490715,20.101133 70.012970,21.539162 
	C72.219963,27.616087 74.799774,33.578342 77.625748,39.396755 
	C78.443596,41.080635 80.679184,43.353683 82.009987,43.196667 
	C83.790291,42.986618 85.947868,40.987812 86.845940,39.204449 
	C89.754623,33.428490 92.161957,27.400051 95.006859,20.783092 
M64.674057,70.062119 
	C65.540924,70.374207 66.407791,70.686287 67.274658,70.998375 
	C67.481194,70.764603 67.687729,70.530830 67.894264,70.297066 
	C65.120438,66.498512 62.346615,62.699970 59.257496,58.469646 
	C58.617783,62.395573 58.159477,65.208199 57.729473,67.847153 
	C59.630798,68.548424 61.826294,69.358185 64.674057,70.062119 
M26.732180,63.547340 
	C26.732180,65.997200 26.732180,68.447067 26.732180,70.896927 
	C27.385777,70.906250 28.039373,70.915573 28.692970,70.924896 
	C28.901649,67.461266 29.110327,63.997639 29.317913,60.552120 
	C30.641661,60.197559 31.888529,59.863586 33.135399,59.529617 
	C33.066525,59.340607 32.997650,59.151596 32.928780,58.962585 
	C29.487249,58.962585 26.045723,58.962585 23.075924,58.962585 
	C24.387094,60.283195 25.556959,61.461483 26.732180,63.547340 
M89.327522,58.305309 
	C87.034782,62.520283 88.224495,66.651764 89.502876,71.028915 
	C89.675385,66.997581 90.523125,63.725994 94.807671,62.317268 
	C93.447586,62.317268 92.087502,62.317268 90.793083,62.317268 
	C90.481178,60.937366 90.229828,59.825367 89.327522,58.305309 
M119.159531,68.976067 
	C119.569298,69.616394 119.979065,70.256721 121.078140,71.974213 
	C121.282730,67.255539 121.013351,63.396706 125.901955,62.351116 
	C124.583954,62.287277 123.265961,62.223438 121.906555,62.157593 
	C121.479553,60.926510 121.019562,59.600285 120.559563,58.274063 
	C120.086578,58.333160 119.613594,58.392254 119.140610,58.451347 
	C119.140610,61.666855 119.140610,64.882362 119.159531,68.976067 
z"/>
<path fill="#EBB817" opacity="1.000000" stroke="none" 
	d="
M135.590332,31.104034 
	C135.571960,34.235691 135.965683,36.993736 135.380753,39.525688 
	C135.032043,41.034966 133.146637,42.189228 131.952072,43.503082 
	C130.714935,42.230801 128.486572,41.015999 128.408890,39.676472 
	C128.033661,33.206219 128.101212,26.697275 128.345657,20.214645 
	C128.396866,18.857166 129.690170,16.619150 130.704956,16.438601 
	C132.303345,16.154213 134.150864,17.269979 136.951080,18.110682 
	C137.078629,18.048481 138.368622,17.316225 139.733398,16.771130 
	C146.739426,13.972889 152.760544,17.495239 153.279007,24.946684 
	C153.613297,29.751236 153.626526,34.616726 153.233459,39.409782 
	C153.115433,40.848824 151.146149,42.136040 150.024979,43.492813 
	C148.760269,42.081657 146.643433,40.801048 146.403198,39.232944 
	C145.854965,35.654430 146.243027,31.934984 146.218369,28.273008 
	C146.196320,25.001110 146.237381,21.604664 141.551086,21.677006 
	C137.363174,21.741652 135.697525,24.249382 135.602585,28.138483 
	C135.582291,28.970350 135.593765,29.802996 135.590332,31.104034 
z"/>
<path fill="#EBB714" opacity="1.000000" stroke="none" 
	d="
M116.051498,43.152542 
	C107.229378,44.880993 99.990730,41.043167 98.186150,33.969376 
	C96.187805,26.135992 99.779381,18.936670 106.859154,16.584356 
	C114.901093,13.912354 122.149948,18.587828 123.306908,26.903612 
	C123.782845,30.324490 122.428543,31.561443 119.348999,31.588167 
	C114.707428,31.628445 110.065239,31.598669 105.401596,31.598669 
	C105.807205,37.177086 108.905052,39.056301 115.324074,37.947624 
	C116.451012,37.752979 117.518578,36.957184 118.620781,36.941319 
	C120.019943,36.921185 121.426483,37.413845 122.829834,37.685387 
	C122.116417,39.019363 121.682045,40.680878 120.610146,41.594097 
	C119.563347,42.485935 117.865623,42.613766 116.051498,43.152542 
M117.070053,25.873896 
	C116.560806,22.017456 114.207352,20.562017 110.531456,20.927538 
	C107.123413,21.266422 105.316177,23.161304 104.970505,27.252131 
	C109.089767,27.063705 112.944733,26.887369 117.070053,25.873896 
z"/>
<path fill="#136EFF" opacity="1.000000" stroke="none" 
	d="
M63.924591,22.460365 
	C64.194450,28.490385 64.530594,34.128998 64.484665,39.764496 
	C64.456436,43.227234 61.822239,44.441620 59.468971,42.503632 
	C57.545864,40.919891 56.854511,41.763626 55.102203,42.178776 
	C52.072556,42.896545 48.564098,43.162418 45.630486,42.318233 
	C41.984276,41.268993 40.407894,37.992935 40.807293,34.000496 
	C41.198761,30.087296 43.984482,28.694281 47.206314,28.097576 
	C50.603180,27.468458 54.085709,27.301880 57.852512,26.898798 
	C58.371590,22.782715 56.360302,20.953676 52.594734,21.157763 
	C50.334404,21.280268 48.141064,22.393648 45.869934,22.670378 
	C44.812935,22.799170 43.642559,21.997417 42.523575,21.617474 
	C42.937592,20.474340 43.010036,18.902424 43.820427,18.256868 
	C49.571079,13.675893 60.123703,15.767463 63.924591,22.460365 
M50.833145,38.883801 
	C56.617752,38.330490 58.056217,36.726620 57.512585,31.046953 
	C55.593555,31.152845 53.572548,30.955248 51.744778,31.458904 
	C50.162491,31.894915 47.649033,33.070961 47.603111,34.019440 
	C47.530132,35.526863 49.168457,37.117134 50.833145,38.883801 
z"/>
<path fill="#156EFF" opacity="1.000000" stroke="none" 
	d="
M36.059715,37.379242 
	C38.932072,40.957962 37.864353,42.852570 33.877495,42.969372 
	C28.065252,43.139652 22.220034,43.301754 16.443169,42.818424 
	C14.895745,42.688957 12.351038,40.247078 12.297233,38.791615 
	C11.929081,28.832771 11.976756,18.850447 12.250646,8.885589 
	C12.287514,7.544193 14.342912,6.258278 15.463614,4.946672 
	C16.645657,6.348071 18.801548,7.715963 18.851105,9.156325 
	C19.163990,18.250231 19.009741,27.360207 19.009741,37.186436 
	C24.836967,37.186436 30.262712,37.186436 36.059715,37.379242 
z"/>
<path fill="#EBB715" opacity="1.000000" stroke="none" 
	d="
M94.884628,21.125978 
	C92.161957,27.400051 89.754623,33.428490 86.845940,39.204449 
	C85.947868,40.987812 83.790291,42.986618 82.009987,43.196667 
	C80.679184,43.353683 78.443596,41.080635 77.625748,39.396755 
	C74.799774,33.578342 72.219963,27.616087 70.012970,21.539162 
	C69.490715,20.101133 70.788986,18.001932 71.249809,16.206871 
	C72.880112,17.201782 75.262093,17.813286 76.001396,19.262676 
	C78.325729,23.819515 80.032585,28.691317 82.364563,34.383484 
	C84.758263,28.685783 86.638367,23.717199 88.973946,18.972839 
	C89.616455,17.667692 91.619652,17.032393 92.998482,16.089725 
	C93.667946,17.654181 94.337402,19.218637 94.884628,21.125978 
z"/>
<path fill="#3479FF" opacity="1.000000" stroke="none" 
	d="
M42.939556,63.920780 
	C42.971416,64.251709 43.133682,64.641937 43.014446,64.904167 
	C42.085747,66.946640 41.485020,69.380440 39.952000,70.788864 
	C39.323059,71.366692 35.703571,70.161896 35.137859,68.966568 
	C34.416763,67.442917 34.855240,63.794270 35.784969,63.400253 
	C37.607948,62.627689 40.116604,63.473083 42.666046,63.791451 
	C42.990604,63.934017 42.939556,63.920780 42.939556,63.920780 
z"/>
<path fill="#276FFF" opacity="1.000000" stroke="none" 
	d="
M64.347923,70.115036 
	C61.826294,69.358185 59.630798,68.548424 57.729473,67.847153 
	C58.159477,65.208199 58.617783,62.395573 59.257496,58.469646 
	C62.346615,62.699970 65.120438,66.498512 67.894264,70.297066 
	C67.687729,70.530830 67.481194,70.764603 67.274658,70.998375 
	C66.407791,70.686287 65.540924,70.374207 64.347923,70.115036 
z"/>
<path fill="#458BFF" opacity="1.000000" stroke="none" 
	d="
M78.924255,61.408184 
	C80.026672,62.601475 81.129097,63.794765 82.751617,65.551033 
	C83.217667,62.768265 83.590157,60.544075 83.962654,58.319885 
	C84.317352,58.323673 84.672043,58.327461 85.026733,58.331249 
	C85.026733,62.444847 85.026733,66.558441 85.026733,72.301140 
	C82.268082,68.809212 80.239510,66.241432 78.324875,63.224884 
	C78.600632,62.320141 78.762444,61.864162 78.924255,61.408184 
z"/>
<path fill="#2C7CFF" opacity="1.000000" stroke="none" 
	d="
M26.729502,63.093555 
	C25.556959,61.461483 24.387094,60.283195 23.075924,58.962585 
	C26.045723,58.962585 29.487249,58.962585 32.928780,58.962585 
	C32.997650,59.151596 33.066525,59.340607 33.135399,59.529617 
	C31.888529,59.863586 30.641661,60.197559 29.317913,60.552120 
	C29.110327,63.997639 28.901649,67.461266 28.692970,70.924896 
	C28.039373,70.915573 27.385777,70.906250 26.732180,70.896927 
	C26.732180,68.447067 26.732180,65.997200 26.729502,63.093555 
z"/>
<path fill="#4882FF" opacity="1.000000" stroke="none" 
	d="
M42.989326,63.958847 
	C44.040928,62.572281 45.093803,61.160889 46.333683,59.498817 
	C47.683849,60.706417 48.901714,61.795692 50.142292,62.905277 
	C46.976261,65.452881 46.746212,67.870140 51.301064,70.487923 
	C47.966148,71.460243 46.102104,71.302330 45.313107,68.069550 
	C44.956963,66.610306 44.297108,65.225197 43.357300,63.863617 
	C42.939556,63.920780 42.990604,63.934017 42.989326,63.958847 
z"/>
<path fill="#436CFF" opacity="1.000000" stroke="none" 
	d="
M89.653000,58.509338 
	C90.229828,59.825367 90.481178,60.937366 90.793083,62.317268 
	C92.087502,62.317268 93.447586,62.317268 94.807671,62.317268 
	C90.523125,63.725994 89.675385,66.997581 89.502876,71.028915 
	C88.224495,66.651764 87.034782,62.520283 89.653000,58.509338 
z"/>
<path fill="#436CFF" opacity="1.000000" stroke="none" 
	d="
M119.150070,68.536972 
	C119.140610,64.882362 119.140610,61.666855 119.140610,58.451347 
	C119.613594,58.392254 120.086578,58.333160 120.559563,58.274063 
	C121.019562,59.600285 121.479553,60.926510 121.906555,62.157593 
	C123.265961,62.223438 124.583954,62.287277 125.901955,62.351116 
	C121.013351,63.396706 121.282730,67.255539 121.078140,71.974213 
	C119.979065,70.256721 119.569298,69.616394 119.150070,68.536972 
z"/>
<path fill="#1974FF" opacity="1.000000" stroke="none" 
	d="
M78.731750,61.107109 
	C78.762444,61.864162 78.600632,62.320141 78.222748,62.901871 
	C77.475868,65.600739 76.945061,68.173851 76.414261,70.746964 
	C76.159576,70.763313 75.904900,70.779663 75.650215,70.796013 
	C75.650215,66.756447 75.650215,62.716881 75.650215,58.677311 
	C76.099243,58.208725 76.548271,57.740135 76.997299,57.271549 
	C77.511284,58.449711 78.025269,59.627869 78.731750,61.107109 
z"/>
<path fill="#FEFDF9" opacity="1.000000" stroke="none" 
	d="
M116.934875,26.292465 
	C112.944733,26.887369 109.089767,27.063705 104.970505,27.252131 
	C105.316177,23.161304 107.123413,21.266422 110.531456,20.927538 
	C114.207352,20.562017 116.560806,22.017456 116.934875,26.292465 
z"/>
<path fill="#EFF5FF" opacity="1.000000" stroke="none" 
	d="
M50.458031,38.778084 
	C49.168457,37.117134 47.530132,35.526863 47.603111,34.019440 
	C47.649033,33.070961 50.162491,31.894915 51.744778,31.458904 
	C53.572548,30.955248 55.593555,31.152845 57.512585,31.046953 
	C58.056217,36.726620 56.617752,38.330490 50.458031,38.778084 
z"/>
</svg>